PathFileType	4	(X/Y/Z)	 s08c0101.trc
DataRate	CameraRate	NumFrames	NumMarkers	Units	OrigDataRate	OrigDataStartFrame	OrigNumFrames
200	200	4	50	mm	200	1	2000
Frame#	Time	racr			lacr			c7			jug			rlel			rdr			llel			ldr			s2			lic			ric			lasi			rasi			rpsi			lpsi			rgt			lgt			rth1			rth2			rth3			rth4			rlfc			rmfc			rsh1			rsh2			rsh3			rsh4			rlmal			rmmal			rcal			rtoe			rmt5			lth1			lth2			lth4			lth3			llfc			lmfc			llmal			lmmal			lcal			lmt5			lsh1			lsh2			lsh3			lsh4			ltoe			SBIKE			LBIKE			RBIKE			
		X1	Y1	Z1	X2	Y2	Z2	X3	Y3	Z3	X4	Y4	Z4	X5	Y5	Z5	X6	Y6	Z6	X7	Y7	Z7	X8	Y8	Z8	X9	Y9	Z9	X10	Y10	Z10	X11	Y11	Z11	X12	Y12	Z12	X13	Y13	Z13	X14	Y14	Z14	X15	Y15	Z15	X16	Y16	Z16	X17	Y17	Z17	X18	Y18	Z18	X19	Y19	Z19	X20	Y20	Z20	X21	Y21	Z21	X22	Y22	Z22	X23	Y23	Z23	X24	Y24	Z24	X25	Y25	Z25	X26	Y26	Z26	X27	Y27	Z27	X28	Y28	Z28	X29	Y29	Z29	X30	Y30	Z30	X31	Y31	Z31	X32	Y32	Z32	X33	Y33	Z33	X34	Y34	Z34	X35	Y35	Z35	X36	Y36	Z36	X37	Y37	Z37	X38	Y38	Z38	X39	Y39	Z39	X40	Y40	Z40	X41	Y41	Z41	X42	Y42	Z42	X43	Y43	Z43	X44	Y44	Z44	X45	Y45	Z45	X46	Y46	Z46	X47	Y47	Z47	X48	Y48	Z48	X49	Y49	Z49	X50	Y50	Z50	
1	0.0050	563.334551	1396.119667	-61.334352	567.010848	1396.569573	-390.699127	546.121131	1450.365371	-224.872950	524.264543	1294.639272	-221.540193	641.947142	1149.486015	1.508337	801.129145	885.517981	-50.613052	666.596614	1152.640077	-437.556838	810.374778	891.405530	-392.816779	-5.396111	1211.764297	-222.893819	163.515927	1185.948002	-368.533439	168.062864	1194.240194	-63.971537	177.533424	1140.418311	-326.697922	176.434912	1127.988997	-91.263865	32.559363	1249.236928	-167.433734	33.885271	1250.884689	-264.914931	61.706725	1089.512868	-27.344244	102.135024	1101.329892	-411.809416	155.898960	938.860449	-17.396360	222.197875	880.246116	-17.668558	252.114904	796.903778	-28.976415	253.106818	900.382325	-27.178952	307.301839	694.120101	-48.147654	290.073904	691.898333	-158.648122	209.780044	606.557288	-19.772330	177.792113	524.234814	-41.327323	110.523143	471.426338	-49.881238	202.773696	513.109580	-72.351534	33.173883	382.517838	-62.962171	59.516869	397.773924	-148.313811	-50.528475	377.459855	-109.789078	227.571353	283.724162	-105.273109	135.177191	276.612256	-35.552599	198.918975	1014.560315	-414.779508	282.758738	989.978637	-407.587377	300.259032	1018.397243	-389.867048	343.708989	924.494614	-405.187471	436.370703	833.162835	-378.551567	436.136053	802.280381	-271.245026	324.426230	428.189983	-394.533575	345.172090	446.297859	-312.654948	257.512142	390.128949	-357.385034	471.622649	364.639182	-413.461466	407.242671	707.783764	-406.756393	402.268645	622.869047	-390.863263	358.714009	546.518551	-397.624146	422.044415	619.762563	-357.429893	544.913680	406.927164	-344.386203	-134.870898	947.757178	-223.198136	27.132448	84.174915	-427.402469	20.087328	80.225423	-29.889577	
2	0.0100	563.249840	1396.087012	-61.203329	567.016303	1396.577880	-390.578651	546.099952	1450.366225	-224.727177	524.183211	1294.603830	-221.345368	641.903008	1149.440666	1.558160	801.113804	885.535730	-50.611232	666.588079	1152.635727	-437.496799	810.367558	891.415361	-392.822649	-5.365531	1211.733211	-222.910443	163.510890	1185.835122	-368.536263	168.010960	1194.261590	-63.944165	177.627917	1140.267690	-326.748756	176.381712	1128.122688	-91.293125	32.509947	1249.146732	-167.476819	33.937062	1250.816348	-264.964901	61.790910	1089.571516	-27.293439	102.032614	1100.863666	-411.692013	156.542013	939.435961	-17.427073	223.094372	881.117563	-17.663615	252.729785	797.571643	-28.983278	253.972838	901.413433	-27.111326	309.046966	695.343477	-47.957033	292.273641	692.518152	-157.650617	210.821574	608.319195	-19.871420	178.352534	526.311404	-41.367390	110.817164	474.003424	-49.886714	203.395465	515.039736	-72.269556	32.951724	385.631233	-63.001851	59.322599	400.835534	-148.383092	-50.919632	380.909006	-109.924080	227.006641	286.481536	-105.327338	134.607922	279.534440	-35.537739	198.554629	1013.466893	-414.792307	282.277836	988.429596	-407.613291	299.929586	1016.715812	-389.895081	342.801933	922.560595	-405.098677	435.025408	830.910494	-378.403642	434.654276	799.935612	-271.142934	325.046257	425.362193	-394.640933	345.746186	443.401222	-312.720455	258.155078	387.316359	-357.412036	472.312507	361.644230	-413.444850	406.325811	705.392139	-406.714848	401.866797	620.438009	-390.859011	358.797494	543.768897	-397.706516	421.631460	617.437291	-357.475467	545.644467	403.910731	-344.377679	-134.878669	947.761393	-223.205060	27.093448	84.135316	-427.354975	20.099793	80.204261	-29.907372	
3	0.0150	563.173848	1396.054341	-61.043007	567.025519	1396.588914	-390.467879	546.069045	1450.356391	-224.568289	524.141238	1294.557435	-221.189528	641.843159	1149.410743	1.646820	801.113410	885.534936	-50.614224	666.602792	1152.654621	-437.426794	810.360199	891.398416	-392.786685	-5.364535	1211.697007	-222.884257	163.516562	1185.740790	-368.478119	167.953272	1194.308271	-63.909254	177.715387	1140.108695	-326.731930	176.350682	1128.261309	-91.327768	32.504080	1249.127539	-167.498025	33.975576	1250.745586	-264.983138	61.885325	1089.638940	-27.235968	101.930748	1100.385121	-411.547609	157.289151	939.952537	-17.390387	224.144124	882.092654	-17.540783	253.613009	799.970878	-27.879386	254.834302	902.388719	-27.046282	310.774031	696.624223	-47.770743	294.169538	693.718381	-157.340018	212.434678	610.297523	-19.566238	178.943797	528.393554	-41.432487	111.161798	476.534383	-49.863185	204.033525	517.017433	-72.244238	32.774080	388.702623	-63.048522	59.102539	403.957314	-148.401026	-51.056279	384.544267	-110.092142	226.506681	289.086201	-105.424567	134.090143	282.470701	-35.510517	198.181849	1012.445765	-414.790048	281.734170	986.928838	-407.635259	299.589556	1015.106044	-389.955602	341.876875	920.608501	-404.944639	433.617167	828.593908	-378.284818	433.078561	797.586317	-271.085700	325.597880	422.475260	-394.626335	346.213136	440.605213	-312.775702	258.781882	384.434319	-357.402804	472.942672	358.739110	-413.405008	405.347621	702.963946	-406.628386	401.390606	617.967529	-390.867957	358.715646	540.939150	-397.659839	421.134525	615.072201	-357.432747	546.227904	400.923719	-344.350782	-134.874880	947.767662	-223.199965	27.099963	84.117837	-427.343186	19.922673	80.522177	-29.686734	
4	0.0200	563.120762	1396.032818	-60.876612	567.011994	1398.314443	-393.703927	546.223766	1450.462606	-224.534194	524.126773	1294.518727	-221.025359	642.198991	1149.353285	1.894113	801.144041	885.511319	-50.614226	665.090734	1153.229032	-439.854516	810.365300	891.391347	-392.796869	-5.322976	1211.649355	-222.902805	163.564235	1186.752178	-373.696725	168.155632	1194.136740	-63.782729	177.796036	1139.977423	-326.732495	175.277074	1128.642184	-93.324249	32.413585	1248.990398	-167.466697	34.030342	1251.079345	-265.072544	61.986701	1089.736285	-27.162413	101.855738	1099.985362	-411.463491	157.936470	940.477497	-17.385645	225.206277	882.870928	-17.438273	255.032457	801.086713	-27.679200	254.600124	904.391362	-28.241076	312.476030	697.858841	-47.548576	296.029426	695.159924	-157.099110	213.766280	612.178602	-19.507915	178.205459	530.429726	-42.792923	111.631345	479.229589	-49.796197	205.200168	518.927994	-71.916576	32.783470	391.682220	-63.263466	59.182468	406.943198	-148.420191	-51.314955	387.767495	-110.058685	225.816408	291.395905	-106.070140	133.616877	285.367379	-35.537557	195.482177	1012.055888	-417.237332	280.337641	986.085592	-409.536072	299.252359	1013.386040	-389.919799	340.854826	918.678666	-404.846296	432.144268	826.297801	-378.135226	431.503730	795.191865	-270.936005	326.706905	418.725875	-393.156887	346.841318	438.008334	-312.916841	259.344224	381.567878	-357.429770	472.541643	357.483298	-416.110468	402.807209	701.735134	-409.368633	400.844896	615.471291	-390.784555	358.123055	539.141992	-399.385856	420.608671	612.721865	-357.421423	546.778372	398.021315	-344.393893	-134.883366	947.785868	-223.324273	27.047038	84.245735	-427.443974	20.089793	80.204899	-29.915621	
